# xmcd
#
# Track frame offsets: 
#        150
#        24675
#        50850
#        71250
#        93825
#        115200
#        138375
#        164250
#        181575
#        207450
#        229125
#        249300
#        267450
#        288900
#
# Disc length: 4184 seconds
#
# Revision: 1
# Processed by: cddbd v1.5.2PL0 Copyright (c) Steve Scherf et al.
# Submitted via: ExactAudioCopy v0.99pb4
#
DISCID=c610560e
DTITLE=Bruce Springsteen - Columbus, 7-31-05(Neo version-Disc 1)
DYEAR=2005
DGENRE=Rock and Roll
TTITLE0=Lift Me Up
TTITLE1=Reason To Believe
TTITLE2=Devils and Dust
TTITLE3=Lonesome Day
TTITLE4=Long Time Comin'
TTITLE5=Back In Your Arms
TTITLE6=For You
TTITLE7=State Trooper
TTITLE8=Cynthia
TTITLE9=One Step Up
TTITLE10=Reno
TTITLE11=When You're Alone
TTITLE12=Valentine's Day
TTITLE13=Lost In The Flood
EXTD=
EXTT0=
EXTT1=
EXTT2=
EXTT3=
EXTT4=
EXTT5=
EXTT6=
EXTT7=
EXTT8=
EXTT9=
EXTT10=
EXTT11=
EXTT12=
EXTT13=
PLAYORDER=
